<?xml version="1.0" standalone="no"?>
<!DOCTYPE svg PUBLIC "-//W3C//DTD SVG 20010904//EN"
 "http://www.w3.org/TR/2001/REC-SVG-20010904/DTD/svg10.dtd">
<svg version="1.0" xmlns="http://www.w3.org/2000/svg"
 width="140.000000pt" height="140.000000pt" viewBox="0 0 140.000000 140.000000"
 preserveAspectRatio="xMidYMid meet">

<g transform="translate(0.000000,140.000000) scale(0.100000,-0.100000)"
fill="#000000" stroke="none">
<path d="M75 1391 c-11 -5 -31 -21 -45 -36 l-25 -27 0 -629 0 -629 33 -32 32
-33 630 0 630 0 32 33 33 32 0 630 0 630 -33 32 -32 33 -618 2 c-339 1 -626
-2 -637 -6z m769 -211 c38 -6 86 -20 106 -31 l37 -21 12 -102 c10 -90 9 -108
-6 -161 -17 -57 -21 -61 -71 -86 l-52 -25 37 -10 c27 -7 45 -21 68 -52 l30
-44 -2 -159 c-1 -170 -5 -182 -52 -201 -54 -20 -233 -38 -387 -38 l-161 0 -7
360 c-4 197 -5 409 -1 470 l8 110 186 0 c102 0 217 -5 255 -10z"/>
<path d="M550 959 c0 -40 5 -89 11 -109 11 -35 14 -38 60 -43 82 -10 119 1
135 39 20 48 8 118 -26 154 -26 28 -33 30 -104 30 l-76 0 0 -71z"/>
<path d="M546 673 c-3 -3 -6 -66 -6 -139 l0 -133 44 -6 c66 -10 98 1 125 42
20 31 22 44 17 87 -10 78 -24 110 -54 128 -29 17 -115 31 -126 21z"/>
</g>
</svg>
