<svg xmlns="http://www.w3.org/2000/svg" xmlns:xlink="http://www.w3.org/1999/xlink" xmlns:inkscape="http://www.inkscape.org/namespaces/inkscape" version="1.1" width="3049.39" height="1092.63" viewBox="0 0 3049.39 1092.63">
<defs>
<clipPath id="clip_0">
<path transform="matrix(1,0,0,-1,0,1092.63)" d="M0 1092.631H3049.39V0H0Z"/>
</clipPath>
</defs>
<g inkscape:groupmode="layer" inkscape:label="Layer 2">
<path transform="matrix(1,0,0,-1,390.3545,261.06849)" d="M0 0V70L40 93.333 0 125.333-49.333 96-31.334 84V-30.667L-156.667-90.667V12.667L-181.334 29.333-223.334 5.333-222.667-14-210.667-10.667V-44L-306.667-98-262.667-138V-148L-314.668-173.332-284.001-203.332V-727.332L-176.667-676V-159.333L-150.765-147.132-149.334-146.458V-147.132-613.334L-124.667-600.001V-134.837L-93.334-120.075V-674.668L-65.334-661.334V-106.884L-26.667-88.667V-601.334L100.667-540V46.667Z" fill="#550023"/>
<path transform="matrix(1,0,0,-1,76.543,434.5387)" d="M0 0 30.311-29.651V-553.068L136.645-502.215V14.454L164.978 27.801V-439.025L188.644-426.232V38.95L220.977 54.183V-500.406L247.978-487.548V66.903L287.645 85.591V-427.068L413.978-366.216V219.354L313.312 172.687V243.757L352.93 266.869 313.77 298.197 265.416 269.446 282.978 257.738V142.489L282.693 142.353 156.644 82.01V185.871L132.456 202.215 90.988 178.52 91.622 160.122 103.644 163.461V129.178L103.389 129.035 7.993 75.375 51.644 35.692V25.158ZM29.311-554.655V-30.072L-1.714 .277 50.644 25.783V35.25L6.295 75.567 102.644 129.763V162.146L90.666 158.818 89.967 179.088 90.229 179.238 132.5 203.392 157.644 186.402V83.598L281.978 143.119V257.203L263.541 269.495 313.854 299.411 354.693 266.739 314.312 243.183V174.253L414.978 220.919V-366.844L414.695-366.98 286.645-428.66V84.015L248.978 66.269V-488.18L219.977-501.99V52.606L189.644 38.316V-426.829L163.978-440.703V26.225L137.645 13.819V-502.845L137.361-502.981Z" fill="#550023"/>
<path transform="matrix(1,0,0,-1,387.687,71.8678)" d="M0 0 103.333-82.667V-51.495L0 38-199.333-94V-122Z" fill="#550023"/>
</g>
<g inkscape:groupmode="layer" inkscape:label="Layer 3">
<path transform="matrix(1,0,0,-1,836.8525,486.2838)" d="M0 0-76 75.333-74.667 106.667-67.333 105.333-55.332 108.666-87.999 148-114.666 137.333V45.333L-233.999 155.333V260.666L-219.332 270.666-265.998 320.001-304.665 294.001-270.664 261.334V206.667L-345.331 272.665V-428L-225.999-518.001V93.999L-195.33 67.266V-483.334L-171.997-504.001V46.927L-147.33 25.426V-438L-124.663-456.667V5.668L-101.333-14.668V-506.001L-16-572.667V-87.333L-2.667-85.333V-66.667L-38.667-29.333Z" fill="#65213d"/>
<path transform="matrix(1,0,0,-1,750.8564,296.2843)" d="M0 0V28L-177.333 222-259.336 172.665V142.665L-178.666 192.666Z" fill="#65213d"/>
<path transform="matrix(1,0,0,-1,572.2764,102.9762)" d="M0 0 178.08-192.034V-165.502L1.154 28.052-80.256-20.926V-49.745ZM179.08-194.583 178.214-193.648-.172-1.284-81.256-51.541V-20.36L-81.014-20.215 1.341 29.331 179.08-165.114Z" fill="#65213d"/>
<g clip-path="url(#clip_0)">
<path transform="matrix(1,0,0,-1,981.0254,686.3292)" d="M0 0C-3.851-2.199-8.107-4.195-12.775-5.977-17.447-7.763-22.36-9.207-27.51-10.305-32.663-11.402-37.783-11.954-42.861-11.954-54.131-11.954-63.985-10.062-72.434-6.286-80.881-2.51-87.927 2.676-93.557 9.271-99.191 15.866-103.416 23.592-106.229 32.455-109.046 41.313-110.453 50.757-110.453 60.788-110.453 71.367-108.839 81.117-105.61 90.051-102.387 98.979-97.748 106.67-91.702 113.128-85.657 119.585-78.342 124.634-69.757 128.275-61.172 131.914-51.588 133.738-41.007 133.738-31.941 133.738-23.493 132.429-15.664 129.821-7.834 127.211-.208 123.089 7.211 117.456L-6.598 97.469C-12.775 101.727-18.618 104.681-24.111 106.328-29.609 107.979-35.24 108.801-41.007 108.801-46.368 108.801-51.413 107.633-56.156 105.299-60.895 102.963-65.015 99.7-68.521 95.511-72.022 91.318-74.803 86.341-76.865 80.569-78.927 74.802-79.956 68.412-79.956 61.406-79.956 54.4-79.131 47.94-77.482 42.036-75.836 36.127-73.467 31.011-70.375 26.684-67.284 22.356-63.438 18.989-58.832 16.588-54.23 14.182-48.911 12.98-42.861 12.98-37.231 12.98-32.082 13.563-27.41 14.734-22.738 15.897-19.028 17.443-16.282 19.368V43.272H-35.65V63.879H9.477V6.593C7.004 4.394 3.842 2.195 0 0" fill="#65213d"/>
<path transform="matrix(1,0,0,-1,940.0186,553.6534)" d="M0 0C-10.382 0-19.917-1.809-28.335-5.378-36.741-8.944-44.005-13.955-49.92-20.273-55.841-26.597-60.446-34.239-63.606-42.986-66.778-51.762-68.384-61.485-68.384-71.888-68.384-81.766-66.981-91.19-64.21-99.899-61.452-108.583-57.258-116.26-51.741-122.714-46.241-129.157-39.261-134.298-30.995-137.993-22.716-141.692-12.913-143.567-1.854-143.567 3.118-143.567 8.209-143.02 13.275-141.941 18.339-140.862 23.243-139.423 27.85-137.661 32.431-135.912 36.679-133.925 40.479-131.753 44.061-129.709 47.064-127.641 49.421-125.602V-69.858H6.419V-88.341H25.787V-113.859L25.335-114.177C22.49-116.17 18.628-117.782 13.854-118.973 9.128-120.158 3.842-120.757-1.854-120.757-8.05-120.757-13.589-119.502-18.319-117.029-23.045-114.566-27.054-111.061-30.231-106.61-33.381-102.2-35.825-96.923-37.497-90.925-39.165-84.959-40.011-78.345-40.011-71.27-40.011-64.168-38.949-57.601-36.858-51.748-34.767-45.894-31.897-40.758-28.327-36.484-24.742-32.198-20.466-28.813-15.618-26.423-10.751-24.027-5.496-22.812 0-22.812 5.853-22.812 11.641-23.66 17.202-25.33 22.516-26.925 28.208-29.75 34.136-33.734L46.762-15.456C39.723-10.227 32.409-6.329 25.007-3.862 17.314-1.3 8.899 0 0 0M-1.854-145.692C-13.212-145.692-23.307-143.754-31.862-139.931-40.418-136.107-47.65-130.778-53.357-124.093-59.057-117.421-63.393-109.498-66.234-100.542-69.072-91.625-70.508-81.985-70.508-71.888-70.508-61.239-68.858-51.272-65.604-42.264-62.345-33.244-57.59-25.356-51.47-18.821-45.352-12.285-37.848-7.104-29.165-3.422-20.481 .258-10.668 2.124 0 2.124 9.128 2.124 17.767 .788 25.679-1.847 33.586-4.482 41.384-8.697 48.858-14.373L49.668-14.988 34.681-36.683 33.808-36.081C27.747-31.907 21.953-28.974 16.593-27.365 11.228-25.754 5.645-24.937 0-24.937-5.168-24.937-10.108-26.078-14.681-28.33-19.261-30.587-23.305-33.79-26.698-37.846-30.107-41.926-32.85-46.845-34.858-52.463-36.866-58.085-37.887-64.413-37.887-71.27-37.887-78.152-37.067-84.573-35.451-90.355-33.846-96.114-31.51-101.167-28.503-105.374-25.521-109.55-21.763-112.838-17.336-115.146-12.911-117.461-7.701-118.633-1.854-118.633 3.668-118.633 8.779-118.054 13.339-116.911 17.606-115.849 21.075-114.448 23.663-112.745V-90.466H4.294V-67.734H51.546V-126.56L51.188-126.877C48.675-129.114 45.423-131.377 41.533-133.599 37.638-135.823 33.289-137.858 28.608-139.645 23.899-141.445 18.89-142.918 13.717-144.02 8.506-145.13 3.265-145.692-1.854-145.692" fill="#65213d"/>
<path transform="matrix(1,0,0,-1,1106.3106,696.01577)" d="M0 0H-88.61V141.362H-1.646V116.43H-58.728V83.663H-7.418V58.73H-58.728V24.935H1.855Z" fill="#65213d"/>
<path transform="matrix(1,0,0,-1,1018.7617,694.95327)" d="M0 0H86.562L88.259 22.81H27.759V58.73H79.068V81.538H27.759V116.429H84.84V139.237H0ZM88.535-2.125H-2.124V141.362H86.965V114.305H29.883V83.663H81.192V56.605H29.883V24.935H90.547Z" fill="#65213d"/>
<path transform="matrix(1,0,0,-1,1212.8467,696.01577)" d="M0 0-54.405 84.281H-54.815V0H-84.694V138.889L-57.081 141.362-4.743 59.141H-4.124V141.362H25.759V0Z" fill="#65213d"/>
<path transform="matrix(1,0,0,-1,1213.4238,694.95327)" d="M0 0H24.119V139.237H-3.64V57.017H-5.9L-58.208 139.185-84.209 136.856V0H-56.455V84.281H-54.4L-54.09 83.794ZM26.243-2.125H-1.158L-54.33 80.251V-2.125H-86.334V138.798L-57.11 141.415-5.764 60.754V141.362H26.243Z" fill="#65213d"/>
<path transform="matrix(1,0,0,-1,1353.999,579.5861)" d="M0 0H-34.21V-116.43H-64.089V-.208H-100.149V24.933H1.854Z" fill="#65213d"/>
<path transform="matrix(1,0,0,-1,1290.9727,694.95327)" d="M0 0H27.754V116.429H62.039L63.736 139.237H-36.061V116.222H0ZM29.879-2.125H-2.125V114.097H-38.186V141.362H66.024L64.012 114.305H29.879Z" fill="#65213d"/>
<path transform="matrix(1,0,0,-1,1460.5352,655.83267)" d="M0 0C0-6.182-1.378-11.883-4.125-17.103-6.871-22.327-10.614-26.825-15.353-30.601-20.095-34.38-25.556-37.297-31.738-39.359-37.92-41.419-44.376-42.451-51.106-42.451-60.998-42.451-69.932-40.833-77.894-37.608-85.864-34.38-93.283-30.364-100.15-25.551L-88.2-3.917C-81.471-8.315-75.08-11.678-69.035-14.012-62.99-16.35-57.015-17.516-51.106-17.516-47.538-17.516-44.447-17.037-41.833-16.074-39.227-15.113-37.095-13.877-35.447-12.365-33.796-10.854-32.56-9.169-31.738-7.315-30.912-5.46-30.501-3.643-30.501-1.854-30.501 1.855-32.012 4.946-35.032 7.419-38.057 9.892-41.8 12.19-46.264 14.323-50.729 16.45-55.571 18.649-60.791 20.917-66.015 23.182-70.856 26.032-75.321 29.468-79.786 32.899-83.528 37.194-86.549 42.347-89.574 47.499-91.084 53.99-91.084 61.819-91.084 68.415-89.781 74.25-87.167 79.335-84.562 84.416-81.089 88.744-76.761 92.318-72.434 95.889-67.421 98.603-61.72 100.457-56.02 102.312-50.007 103.241-43.688 103.241-35.032 103.241-26.995 101.831-19.576 99.015-12.162 96.198-5.771 93.005-.415 89.433L-11.336 68.209C-16.56 71.093-21.742 73.496-26.896 75.42-32.045 77.342-37.646 78.304-43.688 78.304-49.459 78.304-53.717 76.827-56.463 73.875-59.214 70.918-60.588 67.247-60.588 62.851-60.588 58.591-59.077 55.156-56.053 52.546-53.031 49.936-49.289 47.6-44.82 45.542-40.359 43.48-35.518 41.347-30.294 39.152-25.074 36.953-20.232 34.24-15.768 31.014-11.303 27.783-7.561 23.696-4.535 18.752-1.515 13.807 0 7.554 0 0" fill="#65213d"/>
<path transform="matrix(1,0,0,-1,1361.7774,681.05776)" d="M0 0C6.554-4.504 13.702-8.336 21.263-11.398 29.071-14.56 37.95-16.163 47.651-16.163 54.234-16.163 60.639-15.143 66.684-13.126 72.726-11.112 78.127-8.226 82.741-4.545 87.343-.877 91.027 3.55 93.695 8.616 96.349 13.661 97.695 19.248 97.695 25.225 97.695 32.543 96.223 38.666 93.313 43.424 90.38 48.222 86.7 52.244 82.368 55.379 77.986 58.543 73.169 61.243 68.049 63.398 62.908 65.56 58.01 67.714 53.489 69.803 48.959 71.892 45.096 74.302 42.011 76.967 38.76 79.775 37.108 83.513 37.108 88.076 37.108 92.729 38.592 96.681 41.515 99.824 44.461 102.988 49.021 104.592 55.07 104.592 61.209 104.592 66.984 103.599 72.235 101.641 77.092 99.826 82.049 97.557 86.978 94.889L96.961 114.294C91.857 117.598 85.754 120.607 78.804 123.248 71.534 126.006 63.549 127.404 55.07 127.404 48.893 127.404 42.938 126.485 37.367 124.672 31.822 122.869 26.879 120.195 22.673 116.724 18.475 113.256 15.063 109 12.534 104.075 10.014 99.169 8.736 93.439 8.736 87.044 8.736 79.441 10.213 73.071 13.123 68.109 16.062 63.098 19.748 58.867 24.084 55.535 28.457 52.17 33.268 49.337 38.391 47.115 43.557 44.872 48.454 42.648 52.95 40.508 57.48 38.342 61.332 35.973 64.397 33.467 67.663 30.792 69.318 27.396 69.318 23.371 69.318 21.445 68.873 19.464 67.991 17.479 67.111 15.495 65.779 13.678 64.028 12.076 62.29 10.481 60.024 9.162 57.29 8.155 54.576 7.153 51.334 6.647 47.651 6.647 41.633 6.647 35.474 7.851 29.341 10.222 23.536 12.462 17.35 15.682 10.938 19.798ZM47.651-18.288C37.677-18.288 28.527-16.632 20.466-13.369 12.453-10.122 4.894-6.027-2.002-1.195L-2.784-.647 10.182 22.823 11.139 22.198C17.769 17.864 24.15 14.503 30.106 12.205 35.994 9.927 41.896 8.771 47.651 8.771 51.083 8.771 54.078 9.234 56.556 10.147 59.028 11.058 61.058 12.234 62.593 13.643 64.126 15.047 65.29 16.628 66.049 18.342 66.811 20.053 67.194 21.744 67.194 23.371 67.194 26.775 65.84 29.539 63.051 31.822 60.12 34.222 56.412 36.499 52.037 38.59 47.564 40.72 42.685 42.933 37.544 45.167 32.262 47.458 27.3 50.38 22.789 53.852 18.237 57.351 14.366 61.786 11.292 67.035 8.188 72.326 6.611 79.059 6.611 87.044 6.611 93.781 7.969 99.836 10.645 105.046 13.305 110.229 16.897 114.709 21.32 118.363 25.733 122.004 30.911 124.807 36.71 126.692 42.494 128.574 48.67 129.528 55.07 129.528 63.809 129.528 72.047 128.083 79.557 125.233 87.02 122.399 93.538 119.138 98.932 115.542L99.723 115.016 87.865 91.976 86.909 92.505C81.754 95.35 76.567 97.755 71.493 99.651 66.48 101.519 60.954 102.467 55.07 102.467 49.635 102.467 45.598 101.091 43.07 98.376 40.49 95.602 39.232 92.232 39.232 88.076 39.232 84.103 40.596 80.995 43.398 78.575 46.332 76.04 50.029 73.738 54.382 71.732 58.879 69.653 63.755 67.509 68.875 65.356 74.141 63.138 79.099 60.36 83.613 57.1 88.173 53.8 92.046 49.571 95.127 44.532 98.241 39.436 99.82 32.939 99.82 25.225 99.82 18.899 98.391 12.979 95.575 7.628 92.771 2.299 88.898-2.357 84.065-6.205 79.256-10.041 73.634-13.049 67.356-15.143 61.093-17.229 54.463-18.288 47.651-18.288" fill="#65213d"/>
<path transform="matrix(1,0,0,-1,1570.3652,696.01577)" d="M0 0H-88.607V141.362H-1.647V116.43H-58.729V83.663H-7.415V58.73H-58.729V24.935H1.854Z" fill="#65213d"/>
<path transform="matrix(1,0,0,-1,1482.8203,694.95327)" d="M0 0H86.559L88.256 22.81H27.754V58.73H79.068V81.538H27.754V116.429H84.835V139.237H0ZM88.532-2.125H-2.124V141.362H86.959V114.305H29.879V83.663H81.192V56.605H29.879V24.935H90.545Z" fill="#65213d"/>
<path transform="matrix(1,0,0,-1,1002.4033,891.2115)" d="M0 0C0-8.158-1.816-15.688-5.441-22.576-9.07-29.471-14.008-35.404-20.264-40.389-26.52-45.379-33.727-49.229-41.887-51.949-50.045-54.67-58.572-56.031-67.455-56.031-80.51-56.031-92.301-53.896-102.813-49.639-113.332-45.379-123.123-40.076-132.187-33.729L-116.414-5.168C-107.531-10.973-99.098-15.412-91.117-18.496-83.141-21.58-75.252-23.121-67.455-23.121-62.742-23.121-58.662-22.484-55.215-21.215-51.771-19.949-48.959-18.318-46.781-16.32-44.607-14.326-42.975-12.104-41.887-9.658-40.799-7.209-40.256-4.807-40.256-2.449-40.256 2.447-42.252 6.529-46.238 9.791-50.229 13.057-55.172 16.092-61.063 18.904-66.957 21.713-73.35 24.617-80.236 27.61-87.131 30.598-93.521 34.361-99.412 38.896-105.307 43.425-110.25 49.094-114.236 55.895-118.227 62.696-120.221 71.262-120.221 81.598-120.221 90.302-118.498 98.004-115.053 104.717-111.611 111.422-107.029 117.133-101.316 121.853-95.605 126.566-88.988 130.149-81.461 132.596-73.939 135.043-66.006 136.266-57.662 136.266-46.238 136.266-35.633 134.408-25.84 130.692-16.047 126.975-7.617 122.757-.543 118.045L-14.959 90.028C-21.854 93.838-28.695 97.006-35.496 99.549-42.295 102.084-49.686 103.357-57.662 103.357-65.277 103.357-70.9 101.407-74.527 97.51-78.156 93.608-79.965 88.758-79.965 82.957-79.965 77.334-77.973 72.801-73.982 69.358-69.996 65.912-65.053 62.83-59.158 60.11-53.27 57.391-46.877 54.577-39.984 51.678-33.094 48.776-26.703 45.192-20.809 40.936-14.918 36.672-9.975 31.28-5.984 24.75-1.998 18.225 0 9.971 0 0" fill="#550023"/>
<path transform="matrix(1,0,0,-1,1002.4033,891.2115)" stroke-width="2.125" stroke-linecap="butt" stroke-miterlimit="10" stroke-linejoin="miter" fill="none" stroke="#550023" d="M0 0C0-8.158-1.816-15.688-5.441-22.576-9.07-29.471-14.008-35.404-20.264-40.389-26.52-45.379-33.727-49.229-41.887-51.949-50.045-54.67-58.572-56.031-67.455-56.031-80.51-56.031-92.301-53.896-102.813-49.639-113.332-45.379-123.123-40.076-132.187-33.729L-116.414-5.168C-107.531-10.973-99.098-15.412-91.117-18.496-83.141-21.58-75.252-23.121-67.455-23.121-62.742-23.121-58.662-22.484-55.215-21.215-51.771-19.949-48.959-18.318-46.781-16.32-44.607-14.326-42.975-12.104-41.887-9.658-40.799-7.209-40.256-4.807-40.256-2.449-40.256 2.447-42.252 6.529-46.238 9.791-50.229 13.057-55.172 16.092-61.063 18.904-66.957 21.713-73.35 24.617-80.236 27.61-87.131 30.598-93.521 34.361-99.412 38.896-105.307 43.425-110.25 49.094-114.236 55.895-118.227 62.696-120.221 71.262-120.221 81.598-120.221 90.302-118.498 98.004-115.053 104.717-111.611 111.422-107.029 117.133-101.316 121.853-95.605 126.566-88.988 130.149-81.461 132.596-73.939 135.043-66.006 136.266-57.662 136.266-46.238 136.266-35.633 134.408-25.84 130.692-16.047 126.975-7.617 122.757-.543 118.045L-14.959 90.028C-21.854 93.838-28.695 97.006-35.496 99.549-42.295 102.084-49.686 103.357-57.662 103.357-65.277 103.357-70.9 101.407-74.527 97.51-78.156 93.608-79.965 88.758-79.965 82.957-79.965 77.334-77.973 72.801-73.982 69.358-69.996 65.912-65.053 62.83-59.158 60.11-53.27 57.391-46.877 54.577-39.984 51.678-33.094 48.776-26.703 45.192-20.809 40.936-14.918 36.672-9.975 31.28-5.984 24.75-1.998 18.225 0 9.971 0 0Z"/>
<path transform="matrix(1,0,0,-1,1146.831,790.57437)" d="M0 0H-45.152V-153.676H-84.592V-.273H-132.189V32.912H2.445Z" fill="#550023"/>
<path transform="matrix(1,0,0,-1,1146.831,790.57437)" stroke-width="2.125" stroke-linecap="butt" stroke-miterlimit="10" stroke-linejoin="miter" fill="none" stroke="#550023" d="M0 0H-45.152V-153.676H-84.592V-.273H-132.189V32.912H2.445L0 0Z"/>
<path transform="matrix(1,0,0,-1,1293.4307,928.61)" d="M0 0C-11.969-12.422-29.469-18.633-52.494-18.633-64.1-18.633-74.301-17.043-83.094-13.873-91.889-10.701-99.277-6.119-105.26-.135-111.244 5.846-115.732 13.098-118.725 21.623-121.715 30.146-123.211 39.662-123.211 50.182V170.674H-83.775V48.553C-83.775 38.215-81.463 29.918-76.838 23.662-72.215 17.408-64.1 14.277-52.494 14.277-41.07 14.277-33.047 17.359-28.424 23.527-23.799 29.687-21.488 37.943-21.488 48.277V170.674H17.951V50.455C17.951 29.24 11.967 12.42 0 0" fill="#550023"/>
<path transform="matrix(1,0,0,-1,1293.4307,928.61)" stroke-width="2.125" stroke-linecap="butt" stroke-miterlimit="10" stroke-linejoin="miter" fill="none" stroke="#550023" d="M0 0C-11.969-12.422-29.469-18.633-52.494-18.633-64.1-18.633-74.301-17.043-83.094-13.873-91.889-10.701-99.277-6.119-105.26-.135-111.244 5.846-115.732 13.098-118.725 21.623-121.715 30.146-123.211 39.662-123.211 50.182V170.674H-83.775V48.553C-83.775 38.215-81.463 29.918-76.838 23.662-72.215 17.408-64.1 14.277-52.494 14.277-41.07 14.277-33.047 17.359-28.424 23.527-23.799 29.687-21.488 37.943-21.488 48.277V170.674H17.951V50.455C17.951 29.24 11.967 12.42 0 0Z"/>
<path transform="matrix(1,0,0,-1,1458.7979,850.1388)" d="M0 0C0 19.216-3.359 33.951-10.064 44.195-16.773 54.438-26.656 59.564-39.711 59.564H-72.08V-61.2H-39.711C-26.656-61.2-16.773-55.854-10.064-45.151-3.359-34.456 0-19.407 0 0M40.254 0C40.254-13.058 38.713-25.344 35.631-36.858 32.545-48.375 27.742-58.344 21.215-66.776 14.686-75.208 6.393-81.872-3.672-86.766-13.736-91.665-25.75-94.112-39.711-94.112H-111.516V92.477H-39.711C-25.75 92.477-13.736 90.119-3.672 85.403 6.393 80.684 14.686 74.206 21.215 65.955 27.742 57.702 32.545 47.91 35.631 36.58 38.713 25.246 40.254 13.053 40.254 0" fill="#550023"/>
<path transform="matrix(1,0,0,-1,1458.7979,850.1388)" stroke-width="2.125" stroke-linecap="butt" stroke-miterlimit="10" stroke-linejoin="miter" fill="none" stroke="#550023" d="M0 0C0 19.216-3.359 33.951-10.064 44.195-16.773 54.438-26.656 59.564-39.711 59.564H-72.08V-61.2H-39.711C-26.656-61.2-16.773-55.854-10.064-45.151-3.359-34.456 0-19.407 0 0ZM40.254 0C40.254-13.058 38.713-25.344 35.631-36.858 32.545-48.375 27.742-58.344 21.215-66.776 14.686-75.208 6.393-81.872-3.672-86.766-13.736-91.665-25.75-94.112-39.711-94.112H-111.516V92.477H-39.711C-25.75 92.477-13.736 90.119-3.672 85.403 6.393 80.684 14.686 74.206 21.215 65.955 27.742 57.702 32.545 47.91 35.631 36.58 38.713 25.246 40.254 13.053 40.254 0Z"/>
<path transform="matrix(1,0,0,-1,1647.0147,944.2506)" d="M0 0H-116.957V186.588H-2.178V153.676H-77.518V110.43H-9.791V77.519H-77.518V32.912H2.449Z" fill="#550023"/>
<path transform="matrix(1,0,0,-1,1647.0147,944.2506)" stroke-width="2.125" stroke-linecap="butt" stroke-miterlimit="10" stroke-linejoin="miter" fill="none" stroke="#550023" d="M0 0H-116.957V186.588H-2.178V153.676H-77.518V110.43H-9.791V77.519H-77.518V32.912H2.449L0 0Z"/>
<path transform="matrix(1,0,0,-1,1787.6318,944.2506)" d="M0 0-71.807 111.245H-72.35V0H-111.787V183.323L-75.342 186.588-6.254 78.063H-5.439V186.588H33.998V0Z" fill="#550023"/>
<path transform="matrix(1,0,0,-1,1787.6318,944.2506)" stroke-width="2.125" stroke-linecap="butt" stroke-miterlimit="10" stroke-linejoin="miter" fill="none" stroke="#550023" d="M0 0-71.807 111.245H-72.35V0H-111.787V183.323L-75.342 186.588-6.254 78.063H-5.439V186.588H33.998V0H0Z"/>
<path transform="matrix(1,0,0,-1,1973.9424,790.57437)" d="M0 0H-45.15V-153.676H-84.59V-.273H-132.187V32.912H2.447Z" fill="#550023"/>
<path transform="matrix(1,0,0,-1,1973.9424,790.57437)" stroke-width="2.125" stroke-linecap="butt" stroke-miterlimit="10" stroke-linejoin="miter" fill="none" stroke="#550023" d="M0 0H-45.15V-153.676H-84.59V-.273H-132.187V32.912H2.447L0 0Z"/>
<path transform="matrix(1,0,0,-1,2114.288,944.2506)" d="M0 0H-116.957V186.588H-2.178V153.676H-77.518V110.43H-9.793V77.519H-77.518V32.912H2.447Z" fill="#550023"/>
<path transform="matrix(1,0,0,-1,2114.288,944.2506)" stroke-width="2.125" stroke-linecap="butt" stroke-miterlimit="10" stroke-linejoin="miter" fill="none" stroke="#550023" d="M0 0H-116.957V186.588H-2.178V153.676H-77.518V110.43H-9.793V77.519H-77.518V32.912H2.447L0 0Z"/>
<path transform="matrix(1,0,0,-1,2254.9053,944.2506)" d="M0 0-71.807 111.245H-72.35V0H-111.787V183.323L-75.342 186.588-6.254 78.063H-5.439V186.588H33.998V0Z" fill="#550023"/>
<path transform="matrix(1,0,0,-1,2254.9053,944.2506)" stroke-width="2.125" stroke-linecap="butt" stroke-miterlimit="10" stroke-linejoin="miter" fill="none" stroke="#550023" d="M0 0-71.807 111.245H-72.35V0H-111.787V183.323L-75.342 186.588-6.254 78.063H-5.439V186.588H33.998V0H0Z"/>
<path transform="matrix(1,0,0,-1,2410.21,814.7804)" d="M0 0C0 7.614-1.68 13.505-5.033 17.677-8.391 21.849-14.781 23.933-24.209 23.933H-45.969V-25.297H-23.666C-15.506-25.297-9.521-22.985-5.713-18.359-1.906-13.735 0-7.616 0 0M10.063-129.47-14.961-76.431C-17.502-71.357-20.223-66.96-23.123-63.24-26.023-59.527-29.83-57.664-34.545-57.664H-45.969V-129.47H-85.406V56.845H-23.393C-12.879 56.845-3.674 55.485 4.215 52.763 12.102 50.045 18.719 46.188 24.068 41.206 29.416 36.216 33.451 30.231 36.174 23.255 38.895 16.271 40.252 8.609 40.252 .271 40.252-10.431 37.711-20.128 32.637-28.833 27.559-37.535 19.127-44.429 7.342-49.503V-50.048C10.24-51.137 12.463-52.768 14.006-54.945 15.545-57.119 16.768-59.207 17.678-61.199L53.582-129.47Z" fill="#550023"/>
<path transform="matrix(1,0,0,-1,2410.21,814.7804)" stroke-width="2.125" stroke-linecap="butt" stroke-miterlimit="10" stroke-linejoin="miter" fill="none" stroke="#550023" d="M0 0C0 7.614-1.68 13.505-5.033 17.677-8.391 21.849-14.781 23.933-24.209 23.933H-45.969V-25.297H-23.666C-15.506-25.297-9.521-22.985-5.713-18.359-1.906-13.735 0-7.616 0 0ZM10.063-129.47-14.961-76.431C-17.502-71.357-20.223-66.96-23.123-63.24-26.023-59.527-29.83-57.664-34.545-57.664H-45.969V-129.47H-85.406V56.845H-23.393C-12.879 56.845-3.674 55.485 4.215 52.763 12.102 50.045 18.719 46.188 24.068 41.206 29.416 36.216 33.451 30.231 36.174 23.255 38.895 16.271 40.252 8.609 40.252 .271 40.252-10.431 37.711-20.128 32.637-28.833 27.559-37.535 19.127-44.429 7.342-49.503V-50.048C10.24-51.137 12.463-52.768 14.006-54.945 15.545-57.119 16.768-59.207 17.678-61.199L53.582-129.47H10.063Z"/>
<path transform="matrix(1,0,0,-1,2564.4249,829.1964)" d="M0 0C-.545 1.447-1.182 3.442-1.904 5.983-2.631 8.159-3.584 11.15-4.76 14.96-5.941 18.767-7.344 23.663-8.975 29.646H-9.793C-11.607 23.663-13.014 18.767-14.008 14.96-15.006 11.15-15.867 8.159-16.59 5.983-17.32 3.442-17.953 1.447-18.496 0L-34.271-44.88H15.502ZM40.256-115.054 25.568-73.167H-43.791L-58.205-115.054H-95.197L-29.648 68.269 14.145 71.534 80.779-115.054Z" fill="#550023"/>
<path transform="matrix(1,0,0,-1,2564.4249,829.1964)" stroke-width="2.125" stroke-linecap="butt" stroke-miterlimit="10" stroke-linejoin="miter" fill="none" stroke="#550023" d="M0 0C-.545 1.447-1.182 3.442-1.904 5.983-2.631 8.159-3.584 11.15-4.76 14.96-5.941 18.767-7.344 23.663-8.975 29.646H-9.793C-11.607 23.663-13.014 18.767-14.008 14.96-15.006 11.15-15.867 8.159-16.59 5.983-17.32 3.442-17.953 1.447-18.496 0L-34.271-44.88H15.502L0 0ZM40.256-115.054 25.568-73.167H-43.791L-58.205-115.054H-95.197L-29.648 68.269 14.145 71.534 80.779-115.054H40.256Z"/>
<path transform="matrix(1,0,0,-1,2745.5675,829.1964)" d="M0 0C-.545 1.447-1.182 3.442-1.904 5.983-2.633 8.159-3.586 11.15-4.762 14.96-5.941 18.767-7.346 23.663-8.977 29.646H-9.793C-11.607 23.663-13.014 18.767-14.008 14.96-15.008 11.15-15.869 8.159-16.592 5.983-17.32 3.442-17.953 1.447-18.496 0L-34.271-44.88H15.502ZM40.256-115.054 25.566-73.167H-43.791L-58.207-115.054H-95.197L-29.648 68.269 14.143 71.534 80.779-115.054Z" fill="#550023"/>
<path transform="matrix(1,0,0,-1,2745.5675,829.1964)" stroke-width="2.125" stroke-linecap="butt" stroke-miterlimit="10" stroke-linejoin="miter" fill="none" stroke="#550023" d="M0 0C-.545 1.447-1.182 3.442-1.904 5.983-2.633 8.159-3.586 11.15-4.762 14.96-5.941 18.767-7.346 23.663-8.977 29.646H-9.793C-11.607 23.663-13.014 18.767-14.008 14.96-15.008 11.15-15.869 8.159-16.592 5.983-17.32 3.442-17.953 1.447-18.496 0L-34.271-44.88H15.502L0 0ZM40.256-115.054 25.566-73.167H-43.791L-58.207-115.054H-95.197L-29.648 68.269 14.143 71.534 80.779-115.054H40.256Z"/>
<path transform="matrix(1,0,0,-1,2958.8018,850.1388)" d="M0 0C0 19.216-3.357 33.951-10.063 44.195-16.771 54.438-26.654 59.564-39.709 59.564H-72.076V-61.2H-39.709C-26.654-61.2-16.771-55.854-10.063-45.151-3.357-34.456 0-19.407 0 0M40.256 0C40.256-13.058 38.715-25.344 35.633-36.858 32.547-48.375 27.744-58.344 21.217-66.776 14.689-75.208 6.395-81.872-3.67-86.766-13.734-91.665-25.746-94.112-39.709-94.112H-111.514V92.477H-39.709C-25.746 92.477-13.734 90.119-3.67 85.403 6.395 80.684 14.689 74.206 21.217 65.955 27.744 57.702 32.547 47.91 35.633 36.58 38.715 25.246 40.256 13.053 40.256 0" fill="#550023"/>
<path transform="matrix(1,0,0,-1,2958.8018,850.1388)" stroke-width="2.125" stroke-linecap="butt" stroke-miterlimit="10" stroke-linejoin="miter" fill="none" stroke="#550023" d="M0 0C0 19.216-3.357 33.951-10.063 44.195-16.771 54.438-26.654 59.564-39.709 59.564H-72.076V-61.2H-39.709C-26.654-61.2-16.771-55.854-10.063-45.151-3.357-34.456 0-19.407 0 0ZM40.256 0C40.256-13.058 38.715-25.344 35.633-36.858 32.547-48.375 27.744-58.344 21.217-66.776 14.689-75.208 6.395-81.872-3.67-86.766-13.734-91.665-25.746-94.112-39.709-94.112H-111.514V92.477H-39.709C-25.746 92.477-13.734 90.119-3.67 85.403 6.395 80.684 14.689 74.206 21.217 65.955 27.744 57.702 32.547 47.91 35.633 36.58 38.715 25.246 40.256 13.053 40.256 0Z"/>
</g>
</g>
</svg>
